<?xml version="1.0" encoding="utf-8"?>
<!-- Generator: Adobe Illustrator 28.1.0, SVG Export Plug-In . SVG Version: 6.00 Build 0)  -->
<svg version="1.1" xmlns="http://www.w3.org/2000/svg" xmlns:xlink="http://www.w3.org/1999/xlink" x="0px" y="0px"
	 viewBox="0 0 734.5 438.8" style="enable-background:new 0 0 734.5 438.8;" xml:space="preserve">
<style type="text/css">
	.st0{fill-rule:evenodd;clip-rule:evenodd;fill:#8448A0;}
	.st1{fill-rule:evenodd;clip-rule:evenodd;fill:#AF58D7;}
	.st2{fill-rule:evenodd;clip-rule:evenodd;fill:#C866F6;}
	.st3{fill-rule:evenodd;clip-rule:evenodd;fill:#E2A3FF;}
	.st4{enable-background:new    ;}
	.st5{fill:#484848;}
	.st6{font-family:'Helvetica-Bold';}
	.st7{font-size:20px;}
	.st8{font-family:'KozGoPr6N-Regular-83pv-RKSJ-H';}
	.st9{font-family:'Helvetica';}
	.st10{font-size:15px;}
	.st11{fill:none;stroke:#FFFFFF;stroke-width:2;stroke-linecap:round;stroke-linejoin:round;}
	.st12{fill:none;stroke:#484848;stroke-width:2;stroke-linecap:round;stroke-linejoin:round;}
</style>
<g id="レイヤー_1">
	<g id="blend">
		<g id="g-root-cp_1_g-1_htf7ip1szs3k0-fill" transform="translate(41.5172119140625, 195.296875)">
			<g id="cp_1_g-1_htf7ip1szs3k0-fill">
				<g>
					<path class="st0" d="M145.2-52.9c0,17.4-5.4,31.6-12,31.6c-0.3,0-0.6,0-1-0.1c0,0-0.1,0-0.1,0c-6.1-1.4-11-15-11-31.5
						s4.8-30,11-31.5c0,0,0.1,0,0.1,0c0.3-0.1,0.6-0.1,1-0.1C139.8-84.4,145.2-70.3,145.2-52.9z M11.4-59.7L-22-52.9l33.4,6.8
						c-0.4-2.2-0.6-4.5-0.6-6.8C10.8-55.2,11-57.5,11.4-59.7z M121.2-52.9c0-16.5,4.8-30,11-31.5L76.6-73c3.9,5.7,6.1,12.7,6.1,20.1
						c0,7.5-2.3,14.4-6.1,20.1l55.5,11.3C126-22.8,121.2-36.4,121.2-52.9z"/>
				</g>
			</g>
		</g>
		<g id="g-root-cp_2_g-2_8xs79t1szs4cq-fill" transform="translate(209.2030029296875, 162.72900390625)">
			<g id="cp_2_g-2_8xs79t1szs4cq-fill">
				<g>
					<path class="st1" d="M133.8-88.9c-0.4,0-0.7,0-1,0.1l0,0c-9.5,2.1-16.9,31.9-16.9,68.4c0,36.5,7.5,66.3,16.9,68.4l0,0
						c0.3,0.1,0.7,0.1,1,0.1c4.3,0,8.3-5.8,11.4-15.5c-3.4-13.4-5.5-32.2-5.5-53c0-20.8,2.1-39.6,5.5-53
						C142.1-83.1,138.1-88.9,133.8-88.9z M-22-20.3c0-19.5,4.8-35.5,11-36.8l143.8-31.6c-9.5,2.1-16.9,31.9-16.9,68.4
						c0,36.5,7.5,66.3,16.9,68.4L-11,16.4C-17.2,15.1-22-0.8-22-20.3z M46.8,15.7c19.9,0,36-16.1,36-36c0-19.9-16.1-36-36-36
						c-19.9,0-36,16.1-36,36C10.8-0.5,26.9,15.7,46.8,15.7z"/>
				</g>
			</g>
		</g>
		<g id="g-root-cp_3_g-3_8xs79t1szs4cs-fill" transform="translate(370.9200439453125, 125.781005859375)">
			<g id="cp_3_g-3_8xs79t1szs4cs-fill">
				<g>
					<path class="st2" d="M139,122c0.4,0.1,0.7,0.1,1.1,0.1c4,0,7.8-4.3,11.1-12c-6.7-19.7-11.1-54.2-11.1-93.4
						c0-39.3,4.4-73.8,11.1-93.5c-3.3-7.7-7.1-12-11.1-12c-0.4,0-0.8,0-1.1,0.1l-0.2,0c-12.6,3-22.7,49-22.7,105.3
						c0,56.3,10,102.3,22.7,105.3L139,122z M138.8,121.9L-4.8,90.3c-4.6-0.9-8.7-8.6-11.7-20.7c-3.4-13.4-5.5-32.2-5.5-53
						c0-20.8,2.1-39.6,5.5-53c3.1-12.1,7.2-19.9,11.7-20.7l143.5-31.6c-12.6,3-22.7,49-22.7,105.3
						C116.1,72.9,126.1,118.9,138.8,121.9z M47,52.6c19.9,0,36-16.1,36-36c0-19.9-16.1-36-36-36c-19.9,0-36,16.1-36,36
						C11,36.5,27.2,52.6,47,52.6z"/>
				</g>
			</g>
		</g>
		<g id="g-root-cp_4_g-4_8xs79t1szs4cu-fill" transform="translate(532.9979858398438, 88.875)">
			<g id="cp_4_g-4_8xs79t1szs4cu-fill">
				<g>
					<path class="st3" d="M176,53.5c0,60.5-7.9,112.2-19.1,132.8c-3.4,6.2-7,9.6-10.8,9.6c-0.4,0-0.9,0-1.3-0.1c-0.1,0-0.1,0-0.2,0
						c-15.9-3.8-28.5-66-28.5-142.2c0-76.2,12.6-138.5,28.5-142.2c0.1,0,0.1,0,0.2,0c0.4-0.1,0.9-0.1,1.3-0.1
						c3.8,0,7.5,3.4,10.8,9.6C168-58.6,176-6.9,176,53.5z M144.5,195.8c-15.9-3.8-28.5-66-28.5-142.2c0-76.2,12.6-138.5,28.5-142.2
						L1.1-57.2c-4.4,0.8-8.5,7-12,17.2C-17.6-20.3-22,14.2-22,53.5c0,39.3,4.4,73.8,11.1,93.4c3.5,10.2,7.6,16.5,12,17.3
						L144.5,195.8z M47,89.5c19.9,0,36-16.1,36-36s-16.1-36-36-36c-19.9,0-36,16.1-36,36S27.1,89.5,47,89.5z"/>
				</g>
			</g>
		</g>
		<g id="g-root-ic_neur_8z15g11sztjws-fill" transform="translate(86.2030029296875, 207)">
		</g>
		<g id="g-root-ic_robo_m7dadt1szthxf-fill" transform="translate(255, 207)">
		</g>
		<g id="g-root-ic_sket_1hfq30x1szs5c2-fill" transform="translate(416, 207.2850341796875)">
		</g>
		<g id="g-root-ic_puzz_2ro411szs2rl-fill" transform="translate(578, 207.2969970703125)">
		</g>
		<g id="g-root-tx_llmo_1lwsjbl1sztk3p-fill" transform="translate(38, 314)">
			<g id="tx_llmo_1lwsjbl1sztk3p-fill">
				<g>
					<text transform="matrix(1 0 0 1 -14.47 -64.875)" class="st4"><tspan x="0" y="0" class="st5 st6 st7">LLMO</tspan><tspan x="56.7" y="0" class="st5 st8 st7">診断</tspan></text>
				</g>
			</g>
		</g>
		<g id="g-root-tx_ai_1d1s05t1szthqm-fill" transform="translate(38, 350)">
			<g id="tx_ai_1d1s05t1szthqm-fill">
				<g>
					<text transform="matrix(1 0 0 1 -16.72 -67.875)" class="st4"><tspan x="0" y="0" class="st5 st9 st10">AI</tspan><tspan x="14.2" y="0" class="st5 st8 st10">理解のためのメタ</tspan></text>
					<text transform="matrix(1 0 0 1 -17.5 -49.875)" class="st5 st8 st10">データとコンテンツ</text>
					<text transform="matrix(1 0 0 1 27.5 -31.875)" class="st5 st8 st10">の評価</text>
				</g>
			</g>
		</g>
		<g id="g-root-tx_llmo_18lyi1d1sztiiv-fill" transform="translate(206, 350)">
			<g id="tx_llmo_18lyi1d1sztiiv-fill">
				<g>
					<text transform="matrix(1 0 0 1 -16.47 -64.875)" class="st4"><tspan x="0" y="0" class="st5 st6 st7">LLMO</tspan><tspan x="56.7" y="0" class="st5 st8 st7">対策実装</tspan></text>
				</g>
			</g>
		</g>
		<g id="g-root-tx_ai_18lyi1d1sztiiw-fill" transform="translate(206, 386)">
			<g id="tx_ai_18lyi1d1sztiiw-fill">
				<g>
					<text transform="matrix(1 0 0 1 -16.94 -70.875)" class="st4"><tspan x="0" y="0" class="st5 st9 st10">AI</tspan><tspan x="14.2" y="0" class="st5 st8 st10">最適化のための技</tspan></text>
					<text transform="matrix(1 0 0 1 -2.5 -52.875)" class="st5 st8 st10">術的要素の適用</text>
				</g>
			</g>
		</g>
		<g id="g-root-tx_notion_1464zwx1sztjb5-fill" transform="translate(374, 386)">
			<g id="tx_notion_1464zwx1sztjb5-fill">
				<g>
					<text transform="matrix(1 0 0 1 -19.99 -64.875)" class="st4"><tspan x="0" y="0" class="st5 st6 st7">Notion</tspan><tspan x="63.3" y="0" class="st5 st8 st7">ブログ設</tspan></text>
					<text transform="matrix(1 0 0 1 40.01 -40.875)" class="st5 st8 st7">定</text>
				</g>
			</g>
		</g>
		<g id="g-root-tx__vahzo11sztk3v-fill" transform="translate(542, 422)">
			<g id="tx__vahzo11sztk3v-fill">
				<g>
					<text transform="matrix(1 0 0 1 -16 -64.875)" class="st5 st8 st7">統合と最適化</text>
				</g>
			</g>
		</g>
		<g id="g-root-tx_ai_vahzo11sztk3u-fill" transform="translate(374, 446)">
			<g id="tx_ai_vahzo11sztk3u-fill">
				<g>
					<text transform="matrix(1 0 0 1 -16.63 -70.875)" class="st4"><tspan x="0" y="0" class="st5 st9 st10">AI</tspan><tspan x="14.2" y="0" class="st5 st8 st10">最適化されたブロ</tspan></text>
					<text transform="matrix(1 0 0 1 5.01 -52.875)" class="st5 st8 st10">グ機能の統合</text>
				</g>
			</g>
		</g>
		<g id="g-root-tx__qvaymp1szthqc-fill" transform="translate(542, 458)">
			<g id="tx__qvaymp1szthqc-fill">
				<g>
					<text transform="matrix(1 0 0 1 -17.06 -67.875)" class="st5 st8 st10">デザインとパフォー</text>
					<text transform="matrix(1 0 0 1 -17.2 -49.875)" class="st5 st8 st10">マンスの一貫性の確</text>
					<text transform="matrix(1 0 0 1 42.5 -31.875)" class="st5 st8 st10">保</text>
				</g>
			</g>
		</g>
		<g id="g-root-cp_1_g-1_htf7ip1szs3k0-stroke" transform="translate(41.5172119140625, 195.296875)">
			<g id="cp_1_g-1_htf7ip1szs3k0-stroke">
				<g>
					<path class="st11" d="M145.2-52.9c0,17.4-5.4,31.6-12,31.6c-0.3,0-0.6,0-1-0.1c0,0-0.1,0-0.1,0c-6.1-1.4-11-15-11-31.5
						s4.8-30,11-31.5c0,0,0.1,0,0.1,0c0.3-0.1,0.6-0.1,1-0.1C139.8-84.4,145.2-70.3,145.2-52.9z M11.4-59.7L-22-52.9l33.4,6.8
						c-0.4-2.2-0.6-4.5-0.6-6.8C10.8-55.2,11-57.5,11.4-59.7z M121.2-52.9c0-16.5,4.8-30,11-31.5L76.6-73c3.9,5.7,6.1,12.7,6.1,20.1
						c0,7.5-2.3,14.4-6.1,20.1l55.5,11.3C126-22.8,121.2-36.4,121.2-52.9z M132.2-84.3l-0.1,0 M132.2-21.4l-0.1,0 M11.4-59.7
						c0.2-0.9,0.4-1.8,0.6-2.7c4.2-15.3,18.1-26.5,34.7-26.5c11,0,20.9,5,27.5,12.8c0.8,1,1.6,2,2.3,3.1 M76.6-32.7
						c-0.7,1.1-1.5,2.1-2.3,3.1c-6.6,7.8-16.5,12.8-27.5,12.8c-16.6,0-30.5-11.2-34.7-26.5c-0.2-0.9-0.5-1.8-0.6-2.7"/>
				</g>
			</g>
		</g>
		<g id="g-root-cp_2_g-2_8xs79t1szs4cq-stroke" transform="translate(209.2030029296875, 162.72900390625)">
			<g id="cp_2_g-2_8xs79t1szs4cq-stroke">
				<g>
					<path class="st11" d="M133.8-88.9c-0.4,0-0.7,0-1,0.1l0,0c-9.5,2.1-16.9,31.9-16.9,68.4c0,36.5,7.5,66.3,16.9,68.4l0,0
						c0.3,0.1,0.7,0.1,1,0.1c4.3,0,8.3-5.8,11.4-15.5c-3.4-13.4-5.5-32.2-5.5-53c0-20.8,2.1-39.6,5.5-53
						C142.1-83.1,138.1-88.9,133.8-88.9z M-22-20.3c0-19.5,4.8-35.5,11-36.8l143.8-31.6c-9.5,2.1-16.9,31.9-16.9,68.4
						c0,36.5,7.5,66.3,16.9,68.4L-11,16.4C-17.2,15.1-22-0.8-22-20.3z M46.8,15.7c19.9,0,36-16.1,36-36c0-19.9-16.1-36-36-36
						c-19.9,0-36,16.1-36,36C10.8-0.5,26.9,15.7,46.8,15.7z M-10.2,16.5c-0.3,0-0.5,0-0.8-0.1 M-10.2-57.2c-0.3,0-0.5,0-0.8,0.1
						 M132.7-88.8C132.7-88.8,132.7-88.8,132.7-88.8 M132.7,48.1C132.7,48.1,132.7,48.1,132.7,48.1"/>
				</g>
			</g>
		</g>
		<g id="g-root-cp_3_g-3_8xs79t1szs4cs-stroke" transform="translate(370.9200439453125, 125.781005859375)">
			<g id="cp_3_g-3_8xs79t1szs4cs-stroke">
				<g>
					<path class="st11" d="M139,122c0.4,0.1,0.7,0.1,1.1,0.1c4,0,7.8-4.3,11.1-12c-6.7-19.7-11.1-54.2-11.1-93.4
						c0-39.3,4.4-73.8,11.1-93.5c-3.3-7.7-7.1-12-11.1-12c-0.4,0-0.8,0-1.1,0.1l-0.2,0c-12.6,3-22.7,49-22.7,105.3
						c0,56.3,10,102.3,22.7,105.3L139,122z M138.8,121.9L-4.8,90.3c-4.6-0.9-8.7-8.6-11.7-20.7c-3.4-13.4-5.5-32.2-5.5-53
						c0-20.8,2.1-39.6,5.5-53c3.1-12.1,7.2-19.9,11.7-20.7l143.5-31.6c-12.6,3-22.7,49-22.7,105.3
						C116.1,72.9,126.1,118.9,138.8,121.9z M47,52.6c19.9,0,36-16.1,36-36c0-19.9-16.1-36-36-36c-19.9,0-36,16.1-36,36
						C11,36.5,27.2,52.6,47,52.6z M-3.9,90.4c-0.3,0-0.6,0-0.9-0.1 M-3.9-57.2c-0.3,0-0.6,0-0.9,0.1 M139,122c-0.1,0-0.1,0-0.2,0
						 M139-88.8c-0.1,0-0.1,0-0.2,0"/>
				</g>
			</g>
		</g>
		<g id="g-root-cp_4_g-4_8xs79t1szs4cu-stroke" transform="translate(532.9979858398438, 88.875)">
			<g id="cp_4_g-4_8xs79t1szs4cu-stroke">
				<g>
					<path class="st11" d="M176,53.5c0,60.5-7.9,112.2-19.1,132.8c-3.4,6.2-7,9.6-10.8,9.6c-0.4,0-0.9,0-1.3-0.1c-0.1,0-0.1,0-0.2,0
						c-15.9-3.8-28.5-66-28.5-142.2c0-76.2,12.6-138.5,28.5-142.2c0.1,0,0.1,0,0.2,0c0.4-0.1,0.9-0.1,1.3-0.1
						c3.8,0,7.5,3.4,10.8,9.6C168-58.6,176-6.9,176,53.5z M144.5,195.8c-15.9-3.8-28.5-66-28.5-142.2c0-76.2,12.6-138.5,28.5-142.2
						L1.1-57.2c-4.4,0.8-8.5,7-12,17.2C-17.6-20.3-22,14.2-22,53.5c0,39.3,4.4,73.8,11.1,93.4c3.5,10.2,7.6,16.5,12,17.3
						L144.5,195.8z M47,89.5c19.9,0,36-16.1,36-36c0-19.9-16.1-36-36-36c-19.9,0-36,16.1-36,36C11,73.4,27.1,89.5,47,89.5z
						 M144.7,195.8l-0.2,0 M144.7-88.7l-0.2,0 M2.1,164.3c-0.3,0-0.6,0-1-0.1 M2.1-57.3c-0.3,0-0.6,0-1,0.1"/>
				</g>
			</g>
		</g>
		<g id="g-root-tx_ai_4hyp5d1szs554-stroke" transform="translate(270.5, 38)">
		</g>
		<g id="g-root-ic_neur_8z15g11sztjws-stroke" transform="translate(86.2030029296875, 207)">
			<g id="ic_neur_8z15g11sztjws-stroke">
				<g>
					<path class="st12" d="M7.3-70.9c1.3,0,2.3-1,2.3-2.3v-2.2c0-0.6,0.2-1.2,0.7-1.7c0.4-0.4,1-0.7,1.7-0.7h7.8 M-4.7-70.9h18.9
						 M19.8-77.7c0,1.4,1.1,2.5,2.5,2.5c1.4,0,2.5-1.1,2.5-2.5c0-1.4-1.1-2.5-2.5-2.5C20.9-80.2,19.8-79.1,19.8-77.7 M14.5-85.4
						c0,1.4,1.1,2.5,2.5,2.5c1.4,0,2.5-1.1,2.5-2.5s-1.1-2.5-2.5-2.5C15.6-87.9,14.5-86.8,14.5-85.4 M7.3-70.9c1.3,0,2.3,1,2.3,2.3
						v2.2c0,0.6,0.2,1.2,0.7,1.7c0.4,0.4,1,0.7,1.7,0.7h7.8 M19.8-64.1c0,1.4,1.1,2.5,2.5,2.5c1.4,0,2.5-1.1,2.5-2.5
						c0-1.4-1.1-2.5-2.5-2.5C20.9-66.6,19.8-65.4,19.8-64.1 M14.2-70.9c0,1.4,1.1,2.5,2.5,2.5c1.4,0,2.5-1.1,2.5-2.5
						s-1.1-2.5-2.5-2.5C15.3-73.4,14.2-72.3,14.2-70.9 M13.6-57.5c-1.2,2.6-3,4.9-5.3,6.5l0,9.1 M-8.5-41.9v-5h-1.7
						c-2.8,0-5-2.3-5-5v-5H-20c-0.3,0-0.5-0.1-0.7-0.3c-0.2-0.2-0.2-0.5-0.1-0.8c3.5-10.8,5.9-22.4,19.4-22.4 M3.4-70.9L6-82.3
						c0.4-1.8,2-3.1,3.9-3.1h4.6"/>
				</g>
			</g>
		</g>
		<g id="g-root-ic_robo_m7dadt1szthxf-stroke" transform="translate(255, 207)">
			<g id="ic_robo_m7dadt1szthxf-stroke">
				<g>
					<path class="st12" d="M14.1-66.6c0-0.7-0.1-1.5-0.2-2.2l2.2-2.7c1.1-1.3,1.2-3.1,0.4-4.6l-0.9-1.6c-0.8-1.5-2.5-2.2-4.1-1.9
						L8-79c-1.1-0.9-2.4-1.6-3.8-2.2l-1.2-3.2C2.5-86,1-87.1-0.7-87.1h-1.8c-1.7,0-3.2,1-3.8,2.6l-1.2,3.2c-1.4,0.5-2.6,1.3-3.8,2.2
						l-3.4-0.6c-1.7-0.3-3.3,0.5-4.1,1.9l-0.9,1.6c-0.8,1.5-0.7,3.3,0.4,4.6l2.2,2.7c-0.1,0.7-0.2,1.5-0.2,2.2v0
						c0,0.7,0.1,1.4,0.1,2.2l-2.2,2.6c-1.1,1.3-1.2,3.1-0.4,4.6l0.9,1.6c0.8,1.5,2.5,2.2,4.1,1.9l3.4-0.6c1.2,0.9,2.4,1.7,3.8,2.2
						l1.2,3.2c0.6,1.6,2.1,2.6,3.8,2.6h1.8c0.9,0,1.7-0.3,2.4-0.8 M-9-66.7c0,4.1,3.3,7.4,7.4,7.4c4.1,0,7.4-3.3,7.4-7.4
						c0-4.1-3.3-7.5-7.4-7.5C-5.7-74.1-9-70.8-9-66.7L-9-66.7z M11.5-55.7h8.8c0,0,4,0,4,4v5c0,0,0,4-4,4h-8.8c0,0-4,0-4-4v-5
						C7.5-51.7,7.5-55.7,11.5-55.7 M15.9-60.9v5.1 M13.1-50.4v2.3 M18.6-50.4v2.3"/>
				</g>
			</g>
		</g>
		<g id="g-root-ic_sket_1hfq30x1szs5c2-stroke" transform="translate(416, 207.2850341796875)">
			<g id="ic_sket_1hfq30x1szs5c2-stroke">
				<g>
					<path class="st12" d="M24.2-47.5c0,2.2-1.8,4-4,4h-36.4c-2.2,0-4-1.8-4-4v-31c0-2.2,1.8-4,4-4h36.4c2.2,0,4,1.8,4,4V-47.5z
						 M-12.7-50.9C-5.9-68-3.3-73.8,0.8-71.8c6.2,3-8.6,20.7-1.1,21.3C5.5-50.1,6-63.8,10.4-61.3c2.7,1.6-1.3,8.3,1.4,10.1
						c2.2,1.5,4.1-1.5,4.9-3.6 M-9.9-86.9v8.9 M2-86.9v8.9 M13.9-86.9v8.9"/>
				</g>
			</g>
		</g>
		<g id="g-root-ic_puzz_2ro411szs2rl-stroke" transform="translate(578, 207.2969970703125)">
			<g id="ic_puzz_2ro411szs2rl-stroke">
				<g>
					<path class="st12" d="M12.2-64.9c-1.6-1.5-1.7-4-0.2-5.7c1.5-1.6,4-1.8,5.6-0.4c0.1,0.1,0.2,0.2,0.3,0.3
						c0.4,0.4,0.7,0.9,0.9,1.4c0.1,0.3,0.4,0.6,0.8,0.6c0.3,0.1,0.7,0,0.9-0.3l3.2-3.2c0.4-0.4,0.6-0.9,0.6-1.5
						c0-0.5-0.2-1.1-0.6-1.4h0l-3.4-3.3c0.7-0.2,1.3-0.5,1.8-1c1.6-1.6,1.6-4.2,0-5.8c-1.6-1.6-4.2-1.6-5.8,0
						c-0.5,0.5-0.9,1.1-1,1.8L12-86.8c-0.8-0.8-2.1-0.8-2.9,0h0l-3,3c-0.2,0.2-0.3,0.5-0.3,0.8c0,0.3,0.2,0.6,0.5,0.8
						c1.3,0.8,2,2.2,2,3.6c-0.1,1.5-0.9,2.8-2.2,3.5c-1.3,0.7-2.9,0.6-4.1-0.2c-0.3-0.2-0.5-0.4-0.7-0.6c-0.2-0.2-0.4-0.4-0.5-0.6
						C0.5-76.8,0.2-77-0.1-77c-0.3,0-0.6,0.1-0.8,0.3l-3,3c-0.8,0.8-0.8,2.1,0,2.9L7.9-59.1c0.8,0.8,2.1,0.8,2.9,0l3.2-3.2
						c0.2-0.2,0.3-0.6,0.3-0.9c-0.1-0.3-0.3-0.6-0.6-0.8C13.1-64.2,12.6-64.5,12.2-64.9z M-20.4-47.1c21,7,14,7,38-5
						c-1.4-1.9-3.8-2.7-6-2L3-51.4 M-20.4-58.2h6c4.7,0,8,4,9,4h7c2,0,2,4,0,4h-11 M-13.5-58.2c0,0,2.1,6.9-6.8,6.9 M8.4-53.1
						l2.5,4.4 M0.9-50.2l2.2,5.6 M-5.2-54.2c-0.4,1.3-0.4,2.7,0,4"/>
				</g>
			</g>
		</g>
		<g id="g-root-tx_llmo_1lwsjbl1sztk3p-stroke" transform="translate(38, 314)">
		</g>
		<g id="g-root-tx_ai_1d1s05t1szthqm-stroke" transform="translate(38, 350)">
		</g>
		<g id="g-root-tx_llmo_18lyi1d1sztiiv-stroke" transform="translate(206, 350)">
		</g>
		<g id="g-root-tx_ai_18lyi1d1sztiiw-stroke" transform="translate(206, 386)">
		</g>
		<g id="g-root-tx_notion_1464zwx1sztjb5-stroke" transform="translate(374, 386)">
		</g>
		<g id="g-root-tx__vahzo11sztk3v-stroke" transform="translate(542, 422)">
		</g>
		<g id="g-root-tx_ai_vahzo11sztk3u-stroke" transform="translate(374, 446)">
		</g>
		<g id="g-root-tx__qvaymp1szthqc-stroke" transform="translate(542, 458)">
		</g>
	</g>
</g>
<g id="レイヤー_2">
</g>
</svg>
